<svg version="1.1" id="Layer_1" xmlns="http://www.w3.org/2000/svg" xmlns:xlink="http://www.w3.org/1999/xlink" x="0px" y="0px"
	 width="100%" viewBox="0 0 332 332" enable-background="new 0 0 332 332" xml:space="preserve">
<path fill="#FFFFFF" opacity="1.000000" stroke="none" 
	d="
M178.000000,1.000000 
	C229.594589,1.000000 281.189178,1.000000 333.000000,1.000000 
	C333.000000,53.687363 333.000000,106.375023 332.596619,159.360809 
	C332.030090,141.963593 328.139801,125.041061 322.061127,108.483597 
	C314.493622,87.870682 302.996155,69.719856 288.136536,53.719501 
	C276.540222,41.232948 263.200043,30.943756 248.261154,22.531017 
	C230.072052,12.287947 210.848160,5.633355 190.184052,2.966097 
	C186.106049,2.439719 182.060516,1.661874 178.000000,1.000000 
z"/>
<path fill="#FFFFFF" opacity="1.000000" stroke="none" 
	d="
M333.000000,174.000000 
	C333.000000,226.925842 333.000000,279.851685 333.000000,333.000000 
	C281.979309,333.000000 230.958313,333.000000 179.634277,332.600159 
	C186.458084,331.369354 193.715912,331.131561 200.686203,329.591949 
	C218.792175,325.592712 236.042648,319.202454 251.999359,309.547150 
	C269.098206,299.200684 284.146057,286.399689 296.517151,270.784302 
	C305.803680,259.062439 313.601013,246.310318 319.383942,232.337509 
	C326.553772,215.013504 331.217560,197.213379 332.047577,178.446182 
	C332.113647,176.953003 332.670959,175.481552 333.000000,174.000000 
z"/>
<path fill="#FFFFFF" opacity="1.000000" stroke="none" 
	d="
M1.000000,153.000000 
	C1.000000,102.405624 1.000000,51.811249 1.000000,1.000000 
	C52.354023,1.000000 103.708351,1.000000 155.363724,1.401297 
	C139.766922,2.013278 124.519585,5.793001 109.730270,11.124134 
	C90.447197,18.075138 72.907593,28.331984 57.574425,42.002575 
	C38.856728,58.690716 23.889725,78.255623 14.170329,101.516701 
	C8.765291,114.452362 4.505437,127.758865 2.948550,141.808228 
	C2.532278,145.564667 1.661902,149.270782 1.000000,153.000000 
z"/>
<path fill="#FFFFFF" opacity="1.000000" stroke="none" 
	d="
M155.000000,333.000000 
	C103.740379,333.000000 52.480762,333.000000 1.000000,333.000000 
	C1.000000,282.979309 1.000000,232.958313 1.395821,182.628738 
	C3.189495,190.788162 4.067354,199.381851 6.078129,207.701721 
	C13.502355,238.420471 29.018217,264.412781 51.742813,286.470001 
	C65.808052,300.122162 81.730026,310.642334 99.374084,318.713531 
	C113.181969,325.029907 127.626976,329.376190 142.807755,331.046539 
	C146.894012,331.496155 150.937088,332.338135 155.000000,333.000000 
z"/>
<path fill="#070707" opacity="1.000000" stroke="none" 
	d="
M155.468628,333.000000 
	C150.937088,332.338135 146.894012,331.496155 142.807755,331.046539 
	C127.626976,329.376190 113.181969,325.029907 99.374084,318.713531 
	C81.730026,310.642334 65.808052,300.122162 51.742813,286.470001 
	C29.018217,264.412781 13.502355,238.420471 6.078129,207.701721 
	C4.067354,199.381851 3.189495,190.788162 1.395821,182.160080 
	C1.000000,172.645767 1.000000,163.291550 1.000000,153.468658 
	C1.661902,149.270782 2.532278,145.564667 2.948550,141.808228 
	C4.505437,127.758865 8.765291,114.452362 14.170329,101.516701 
	C23.889725,78.255623 38.856728,58.690716 57.574425,42.002575 
	C72.907593,28.331984 90.447197,18.075138 109.730270,11.124134 
	C124.519585,5.793001 139.766922,2.013278 155.832382,1.401297 
	C163.020950,1.000000 170.041901,1.000000 177.531433,1.000000 
	C182.060516,1.661874 186.106049,2.439719 190.184052,2.966097 
	C210.848160,5.633355 230.072052,12.287947 248.261154,22.531017 
	C263.200043,30.943756 276.540222,41.232948 288.136536,53.719501 
	C302.996155,69.719856 314.493622,87.870682 322.061127,108.483597 
	C328.139801,125.041061 332.030090,141.963593 332.596619,159.829468 
	C333.000000,164.356903 333.000000,168.713806 333.000000,173.535355 
	C332.670959,175.481552 332.113647,176.953003 332.047577,178.446182 
	C331.217560,197.213379 326.553772,215.013504 319.383942,232.337509 
	C313.601013,246.310318 305.803680,259.062439 296.517151,270.784302 
	C284.146057,286.399689 269.098206,299.200684 251.999359,309.547150 
	C236.042648,319.202454 218.792175,325.592712 200.686203,329.591949 
	C193.715912,331.131561 186.458084,331.369354 179.165619,332.600159 
	C171.312424,333.000000 163.624832,333.000000 155.468628,333.000000 
M29.064432,83.577492 
	C10.679987,113.908073 3.130077,146.835678 6.325971,182.053925 
	C14.582587,273.040497 97.978271,339.031525 188.826141,326.721985 
	C301.546478,311.448792 363.292023,185.443604 306.403107,86.780602 
	C272.955475,28.771978 207.490311,-2.729283 141.651474,8.012486 
	C93.006279,15.949070 55.893818,41.598335 29.064432,83.577492 
z"/>
<path fill="#F9F9F9" opacity="1.000000" stroke="none" 
	d="
M29.223892,83.250412 
	C55.893818,41.598335 93.006279,15.949070 141.651474,8.012486 
	C207.490311,-2.729283 272.955475,28.771978 306.403107,86.780602 
	C363.292023,185.443604 301.546478,311.448792 188.826141,326.721985 
	C97.978271,339.031525 14.582587,273.040497 6.325971,182.053925 
	C3.130077,146.835678 10.679987,113.908073 29.223892,83.250412 
M276.617737,85.418861 
	C276.892334,86.604218 277.166931,87.789574 277.528687,89.351257 
	C280.047607,87.698929 281.817291,86.538063 283.405670,85.496140 
	C284.967743,86.582909 286.352112,87.546043 288.505646,89.044296 
	C288.534302,85.557472 284.312622,82.745308 289.568939,81.664589 
	C290.597870,82.801208 291.645233,83.958206 292.692596,85.115204 
	C293.219025,84.825111 293.745422,84.535019 294.271820,84.244934 
	C292.959076,81.805923 291.646332,79.366913 290.178314,76.639381 
	C287.084534,78.730774 284.574066,80.588104 281.904419,82.178200 
	C280.012115,83.305283 277.904694,84.071266 276.100433,84.348221 
	C278.995392,80.935242 281.976257,77.588959 284.718323,74.057243 
	C285.320587,73.281555 285.073853,71.846672 285.218109,70.715370 
	C284.067474,70.606712 282.686554,70.032318 281.805115,70.468124 
	C277.439301,72.626709 273.205322,75.052063 267.508698,78.154709 
	C270.751831,78.958931 272.488129,79.389496 274.224426,79.820053 
	C273.887390,80.122910 273.550385,80.425766 273.213379,80.728622 
	C274.137054,82.122231 275.060730,83.515831 276.617737,85.418861 
M258.907074,66.656044 
	C260.739532,68.820000 262.571960,70.983963 264.404419,73.147926 
	C264.962402,72.809486 265.520386,72.471039 266.078339,72.132599 
	C265.221680,70.466568 264.365051,68.800537 263.436310,66.994362 
	C264.262848,66.110504 265.156158,65.155235 266.084808,64.162170 
	C267.461365,65.140961 268.690491,66.014946 269.919647,66.888931 
	C270.285522,66.643257 270.651398,66.397591 271.017303,66.151917 
	C270.287567,64.547569 269.557800,62.943214 268.828064,61.338860 
	C268.986786,60.906364 269.145477,60.473869 269.304199,60.041374 
	C271.130157,60.684387 272.956146,61.327400 274.780243,61.969749 
	C275.721222,59.750114 275.721222,59.750114 269.692413,54.417503 
	C266.155029,58.280376 262.572723,62.192341 258.679077,65.335754 
	C259.563446,59.499855 261.668365,54.615261 268.964966,53.777100 
	C268.728302,53.333073 268.491669,52.889046 268.255005,52.445015 
	C266.308411,52.184139 264.361847,51.923264 262.800903,51.714073 
	C262.747070,50.490631 262.695282,49.313290 262.643494,48.135944 
	C261.471100,48.639473 260.002747,48.856312 259.183563,49.701984 
	C257.000031,51.956100 254.998001,54.408131 253.123993,56.930210 
	C252.257065,58.096943 251.856262,59.610050 251.244125,60.966118 
	C252.765518,60.885448 254.286911,60.804783 255.787933,60.725197 
	C255.758484,65.166603 255.758484,65.166603 258.907074,66.656044 
M193.996582,308.165161 
	C193.693924,306.699158 193.164810,305.232513 193.168976,303.767365 
	C193.171692,302.805420 193.944611,301.845673 194.372604,300.884918 
	C195.199631,301.483643 195.976730,302.173798 196.865616,302.659271 
	C198.130295,303.349945 199.477097,303.890320 201.434814,304.792664 
	C200.451935,297.954193 199.068726,296.597595 194.922104,297.110046 
	C189.741379,297.750214 188.098511,299.909515 188.861710,305.236206 
	C189.144196,307.207916 189.610016,309.153748 190.002777,311.109222 
	C192.033432,321.219666 192.035477,321.224213 201.922287,319.491241 
	C202.703369,319.354340 203.461609,319.087280 204.589355,318.784271 
	C203.734528,314.690399 202.937607,310.873871 202.098663,306.856049 
	C199.761124,307.274811 197.831848,307.620422 195.405380,308.027740 
	C195.011627,308.332886 194.617889,308.638062 193.996582,308.165161 
M109.246437,303.164307 
	C109.412949,303.265503 109.579453,303.366699 109.600197,304.203400 
	C106.083847,311.173218 106.083847,311.173218 110.285858,312.782410 
	C113.380669,306.063385 116.483238,299.327515 119.700035,292.343658 
	C117.489822,291.305878 115.585472,290.411743 113.783936,289.565857 
	C111.394157,292.391388 109.281693,294.889069 107.169220,297.386749 
	C106.823837,297.124298 106.478447,296.861847 106.133057,296.599396 
	C106.940514,293.504639 107.747971,290.409882 108.591698,287.176117 
	C106.259682,286.162445 104.362007,285.337585 102.251747,284.420319 
	C98.980034,291.539276 95.894676,298.252716 92.714798,305.171844 
	C94.317406,305.838898 95.444916,306.308228 96.548981,306.767792 
	C97.958412,303.955109 99.144753,301.587646 100.270187,299.341705 
	C103.505928,302.345459 96.092125,307.957184 103.328255,309.780762 
	C105.340797,307.208221 107.067429,305.001190 109.246437,303.164307 
M197.801697,290.483978 
	C260.996765,274.158752 301.314240,214.658569 292.957916,150.053192 
	C283.898682,80.013672 217.286880,30.093777 147.646378,41.154583 
	C50.662502,56.558262 5.827925,170.189819 67.429520,246.261963 
	C100.865417,287.552124 145.074829,301.363464 197.801697,290.483978 
M244.649673,302.922363 
	C243.531937,299.717529 242.414215,296.512695 241.294952,293.303467 
	C245.954498,290.239410 245.954498,290.239410 244.016998,287.513824 
	C242.273239,288.359070 240.526062,289.205994 238.577606,290.150452 
	C237.716263,288.456604 237.001877,287.051697 236.401871,285.871765 
	C238.547272,284.071869 240.362122,282.549286 242.659103,280.622192 
	C246.550430,285.891937 250.453415,291.177490 254.572342,296.755463 
	C255.774429,295.791229 256.834198,294.941132 257.921539,294.068909 
	C255.936752,291.160309 254.200104,288.615326 252.411484,285.994232 
	C254.177032,284.584869 255.587204,283.459167 257.249390,282.132324 
	C254.419174,276.837158 252.293900,283.287323 249.557327,282.291595 
	C248.865387,281.252625 247.993454,279.943390 247.064056,278.547852 
	C248.899063,277.159821 250.475220,275.967590 252.284622,274.598938 
	C251.590805,273.594910 250.989075,272.724121 250.391800,271.859772 
	C243.693329,276.307343 237.231781,280.597626 230.489655,285.074188 
	C233.942139,290.936798 237.325607,296.825531 240.920731,302.582062 
	C241.313034,303.210236 242.924881,303.076813 244.649673,302.922363 
M217.468613,312.064819 
	C218.935974,312.833893 220.403336,313.602997 221.870682,314.372101 
	C222.269547,313.869202 222.668411,313.366302 223.067291,312.863403 
	C221.186584,309.324249 218.417007,305.979187 217.593842,302.209106 
	C215.238678,291.422638 215.547409,291.349274 205.262527,294.998199 
	C204.678879,295.205322 204.169373,295.621338 203.314667,296.122192 
	C205.700912,303.257782 208.040665,310.254333 210.496735,317.598724 
	C212.119614,316.825134 213.247086,316.287689 214.394699,315.740662 
	C213.421005,312.571075 212.550919,309.738739 211.579620,306.576935 
	C216.683014,304.881592 215.989578,309.177979 217.468613,312.064819 
M176.370911,305.350433 
	C176.296249,303.745392 176.221588,302.140350 176.142654,300.443481 
	C169.274582,300.493378 173.428909,306.143036 171.258301,308.853210 
	C170.357239,305.939728 169.549286,303.327240 168.693863,300.561340 
	C166.789444,300.691620 165.203094,300.800110 163.806381,300.895630 
	C163.806381,308.521423 163.806381,315.769348 163.806381,323.358856 
	C165.507416,323.211304 166.708435,323.107147 167.620987,323.027985 
	C167.620987,319.470947 167.620987,316.327026 167.620987,313.142303 
	C171.850739,315.636841 167.740158,325.072876 176.382950,323.067657 
	C176.382950,317.151184 176.382950,311.693878 176.370911,305.350433 
M152.288605,22.399315 
	C153.073715,31.673410 153.073715,31.673410 155.897400,31.447245 
	C155.642578,29.397257 155.387482,27.345072 155.132385,25.292889 
	C155.606567,25.187885 156.080734,25.082882 156.554916,24.977879 
	C157.056122,26.769970 157.344116,28.659204 158.106430,30.332319 
	C159.379807,33.126995 160.978622,32.079300 162.679504,26.714096 
	C162.961609,29.887222 163.237335,32.713867 167.058487,30.585312 
	C166.693420,25.137003 166.341522,19.885077 165.968796,14.322404 
	C164.188370,14.413639 162.762299,14.486715 161.189957,14.567288 
	C160.686356,17.728594 160.225861,20.619354 159.604431,24.520351 
	C158.569550,20.723482 157.797318,17.890268 156.956375,14.804983 
	C155.234146,14.908301 153.689285,15.000978 151.922180,15.106990 
	C152.059784,17.507849 152.172836,19.480495 152.288605,22.399315 
M219.017014,37.527840 
	C219.171494,37.465363 219.322189,37.369827 219.481720,37.351612 
	C219.594940,37.338680 219.827866,37.441971 219.824417,37.473248 
	C219.670197,38.874275 219.495651,40.273071 219.321106,41.691772 
	C222.515076,42.648029 224.437454,39.324436 227.625336,26.924931 
	C226.171463,26.434273 224.693085,25.935341 223.362686,25.486351 
	C221.734329,27.637386 220.378189,29.428829 218.208420,32.295063 
	C218.881409,23.242325 218.881409,23.242325 214.452744,22.624491 
	C212.589981,27.527554 210.713181,32.467564 208.836365,37.407574 
	C209.104263,37.821854 209.372162,38.236134 209.640060,38.650414 
	C211.087708,37.904808 212.535355,37.159203 213.577820,36.622292 
	C214.217377,37.933998 214.855240,39.242237 215.493103,40.550476 
	C216.526810,39.741634 217.560516,38.932793 219.017014,37.527840 
M228.839188,310.939545 
	C229.194092,310.428680 229.928848,309.843262 229.845474,309.418396 
	C228.954117,304.876434 230.484894,304.824585 233.894775,306.877106 
	C234.964539,307.521027 236.749054,306.977539 239.121216,306.977539 
	C234.643112,300.659760 230.804932,295.642609 227.424118,290.334137 
	C225.201340,286.843964 223.261490,287.381805 220.703125,289.809143 
	C222.313019,296.320740 223.837906,302.792328 225.589935,309.201843 
	C225.816467,310.030579 227.217773,310.538208 228.839188,310.939545 
M97.067505,280.995636 
	C95.874084,280.241486 94.680664,279.487335 93.424911,278.693787 
	C87.995453,284.479980 82.860435,289.952393 77.725410,295.424805 
	C77.896523,295.912781 78.067627,296.400787 78.238739,296.888794 
	C79.786415,296.666016 81.396202,296.081421 82.862419,296.333160 
	C84.069031,296.540314 85.389008,297.530609 86.142448,298.553986 
	C87.006615,299.727783 87.301468,301.320740 87.843643,302.731628 
	C88.357437,302.616486 88.871223,302.501343 89.385010,302.386200 
	C92.077835,295.489014 94.770653,288.591858 97.067505,280.995636 
M153.575089,299.862549 
	C152.381500,300.539886 150.239532,301.104767 150.143799,301.912292 
	C149.351578,308.593475 148.938095,315.319550 148.416382,321.950836 
	C157.492050,324.124146 159.444778,323.738831 159.482208,319.866913 
	C157.416412,319.604767 155.337494,319.340942 152.930542,319.035461 
	C153.204620,316.668030 153.439453,314.639587 153.673416,312.618561 
	C156.132507,312.618561 158.031906,312.618561 159.883850,312.618561 
	C160.949585,307.063599 156.002640,310.044281 154.024323,308.021729 
	C154.140305,306.842072 154.288406,305.335602 154.432358,303.871277 
	C156.928467,303.871277 158.872421,303.871277 161.131271,303.871277 
	C161.160568,298.332794 156.785721,300.898376 153.575089,299.862549 
M76.442986,284.474945 
	C78.547447,284.910431 80.651909,285.345947 83.455956,285.926208 
	C87.227364,282.406067 80.048164,282.311737 80.493011,279.253571 
	C81.233635,278.391235 82.258789,277.197601 83.297493,275.988190 
	C85.220169,277.352875 86.807274,278.479340 88.379364,279.595184 
	C90.912048,276.555939 88.883858,273.969513 81.477966,270.599609 
	C77.009491,276.448669 72.516647,282.329651 67.887512,288.389008 
	C69.341721,289.328156 70.400887,290.012146 71.589088,290.779480 
	C73.136589,288.781219 74.553246,286.951874 76.442986,284.474945 
M248.770035,40.326878 
	C245.954422,44.395638 243.138824,48.464397 240.323212,52.533157 
	C240.604355,52.999386 240.885513,53.465618 241.166656,53.931847 
	C242.734024,53.086609 244.301392,52.241367 246.135910,51.252064 
	C246.125992,53.760437 243.195877,57.366577 248.235718,57.906105 
	C257.089996,46.789276 257.797516,45.316460 255.073257,42.927822 
	C254.145660,43.991894 253.202118,45.074238 251.673431,46.827831 
	C251.961166,43.357040 255.360397,39.327061 248.770035,40.326878 
M111.873322,26.986204 
	C113.209396,30.736813 114.402565,34.548874 115.972206,38.199043 
	C116.419113,39.238342 117.960464,39.807011 119.993370,41.341248 
	C119.082024,37.216537 118.561211,34.859356 118.019409,32.407223 
	C122.586853,32.058025 120.273079,40.272991 125.892517,37.563202 
	C124.452133,33.688389 123.253296,30.027840 121.711578,26.517895 
	C121.040482,24.990057 119.267616,22.461590 118.679268,22.640265 
	C116.199028,23.393492 113.976707,24.996038 111.873322,26.986204 
M63.994278,76.029396 
	C65.111443,75.738754 66.228615,75.448112 67.791473,75.041512 
	C63.758553,71.588737 60.636524,68.546188 57.100731,66.102272 
	C55.963707,65.316368 53.427223,65.564011 52.087692,66.322281 
	C50.539967,67.198410 49.607090,69.160698 48.271065,70.820587 
	C52.102245,74.144890 55.530807,77.289497 59.178322,80.155449 
	C60.003288,80.803642 61.589581,80.482903 62.825420,80.608170 
	C62.137058,78.420517 61.231766,77.689690 60.421970,76.865074 
	C59.588268,76.016121 58.847652,75.075745 58.066311,74.175377 
	C58.356586,73.774139 58.646862,73.372902 58.937141,72.971664 
	C60.386990,73.852097 61.836834,74.732521 63.994278,76.029396 
M79.098503,51.350101 
	C74.145081,45.376579 73.198296,45.403179 67.211037,51.830498 
	C70.621925,56.034435 74.050354,60.259979 77.456078,64.457542 
	C85.042969,59.650787 85.147629,58.945084 79.098503,51.350101 
M182.645813,16.461620 
	C181.931656,21.509180 181.217499,26.556740 180.512466,31.539753 
	C189.004807,34.008701 189.834290,33.511517 190.912079,25.649971 
	C190.979477,25.158550 191.016998,24.663107 191.073593,24.170130 
	C191.984421,16.237795 191.327332,15.551193 182.645813,16.461620 
M131.093170,296.579803 
	C129.394470,303.718475 127.695778,310.857117 126.006577,317.955902 
	C135.704102,320.788391 135.704102,320.788391 136.570969,317.113922 
	C134.764694,316.510773 132.966858,315.910461 131.075027,315.278778 
	C132.336441,310.069824 133.365341,305.222687 134.715225,300.466675 
	C135.551849,297.518982 134.977097,295.977600 131.093170,296.579803 
M64.731979,68.806969 
	C67.023018,71.412895 69.424179,73.139870 72.612144,70.002495 
	C75.807487,66.857849 73.894852,64.402855 71.591614,61.991280 
	C70.110535,60.440536 68.562996,58.951965 67.111526,57.374546 
	C64.848999,54.915691 62.531300,55.046402 60.231014,57.212105 
	C57.908173,59.399040 57.687130,61.667789 60.138161,64.005951 
	C61.567696,65.369659 62.869652,66.867111 64.731979,68.806969 
M209.392212,25.080599 
	C210.512756,21.537720 208.842072,19.697811 205.545975,19.035301 
	C202.260071,18.374834 200.656143,20.094894 199.995712,23.158649 
	C199.508987,25.416473 198.810318,27.628550 198.208130,29.861561 
	C197.375412,32.949356 197.656998,35.386913 201.394135,36.337894 
	C204.857788,37.219280 206.773056,36.069000 207.485596,32.578671 
	C207.947464,30.316315 208.628525,28.098707 209.392212,25.080599 
M41.269508,81.142960 
	C45.638260,84.376160 50.007011,87.609360 54.554379,90.974747 
	C57.718307,86.248062 52.032822,86.482536 51.385750,83.617302 
	C54.723598,80.239014 52.897526,77.777153 49.261852,75.436188 
	C44.803600,72.565582 43.984158,76.733734 42.066681,78.834999 
	C41.626396,79.317482 41.330990,79.932175 41.269508,81.142960 
M82.977470,51.573116 
	C83.353355,52.118366 83.745850,52.652996 84.102325,53.210648 
	C85.882996,55.996185 88.063103,57.158829 91.112732,55.003506 
	C94.149818,52.857048 93.770859,50.406277 91.815819,47.772739 
	C90.928642,46.577660 90.216827,45.228760 89.209221,44.151985 
	C87.479416,42.303455 85.580009,40.613644 83.751801,38.857197 
	C84.713524,41.312084 85.544975,43.829056 86.676384,46.203075 
	C87.659218,48.265339 88.981392,50.165882 90.153603,52.137897 
	C89.583702,52.483940 89.013794,52.829983 88.443893,53.176025 
	C86.857956,50.977680 85.510330,48.539032 83.611618,46.656082 
	C82.058235,45.115604 81.942848,40.184017 77.380951,43.335808 
	C79.229584,46.049625 80.902359,48.505272 82.977470,51.573116 
M236.297592,39.814865 
	C234.335083,42.169464 232.372589,44.524063 230.410095,46.878662 
	C230.590912,47.245632 230.771729,47.612606 230.952560,47.979576 
	C232.604568,47.740013 234.256577,47.500450 235.890350,47.263535 
	C236.592453,48.859547 237.288208,50.441143 238.534210,53.273567 
	C240.692368,47.249584 242.486908,42.811569 243.788361,38.233383 
	C244.143829,36.982998 243.017776,35.311462 242.309479,32.964756 
	C239.823196,35.812614 238.304138,37.552586 236.297592,39.814865 
M93.634483,44.850651 
	C96.564232,50.202938 100.857895,51.259842 103.197456,47.018185 
	C103.878868,45.782784 103.161484,43.676331 102.799484,42.032074 
	C102.704163,41.599091 101.542473,41.400871 100.870461,41.094849 
	C100.773598,42.507118 100.703476,43.922176 100.556648,45.329231 
	C100.528275,45.601158 100.199959,45.841785 99.089462,47.332943 
	C96.840073,43.284290 94.900795,39.793816 92.961525,36.303337 
	C93.347252,36.093414 93.732986,35.883488 94.118721,35.673565 
	C95.770256,36.401966 97.421799,37.130371 100.242699,38.374512 
	C98.453156,33.112000 96.500664,31.046518 92.592216,33.190807 
	C89.066330,35.125210 89.396156,37.793728 91.288940,40.736446 
	C92.006424,41.851917 92.574623,43.063404 93.634483,44.850651 
M170.269897,21.673485 
	C170.123337,24.779562 169.976776,27.885639 169.815872,31.295704 
	C172.834091,31.512777 175.415665,31.698448 177.997238,31.884119 
	C178.221786,31.335644 178.446350,30.787169 178.670898,30.238695 
	C176.904800,29.527357 175.138687,28.816019 173.466263,28.142412 
	C171.620590,23.309135 176.603622,24.646975 178.419159,23.074133 
	C176.563263,21.429846 174.971161,20.019276 172.856110,18.145380 
	C175.999481,17.348616 177.618546,16.938221 179.237625,16.527826 
	C179.173172,15.990472 179.108719,15.453116 179.044266,14.915762 
	C176.379852,14.767297 173.715439,14.618832 170.858978,14.459666 
	C170.640152,16.818968 170.457962,18.783337 170.269897,21.673485 
M121.455589,298.924377 
	C119.753883,304.192444 118.052177,309.460510 116.350471,314.728607 
	C116.667503,315.150879 116.984535,315.573151 117.301567,315.995422 
	C118.558868,315.452301 120.625702,315.201416 120.944092,314.319397 
	C123.273613,307.865936 125.252449,301.285889 127.446350,294.418976 
	C125.609436,294.080505 124.414444,293.860321 123.229820,293.642059 
	C122.659439,295.387817 122.198204,296.799561 121.455589,298.924377 
M104.709984,39.821289 
	C105.526360,41.593964 106.342735,43.366638 107.204659,45.238213 
	C110.009926,43.925343 112.464622,42.776543 114.919319,41.627739 
	C114.785812,41.076084 114.652298,40.524433 114.518784,39.972778 
	C112.671776,40.174850 110.824768,40.376926 108.808952,40.597473 
	C108.293327,39.486267 107.758003,38.332619 107.221977,37.177444 
	C108.669853,36.092049 109.882088,35.183304 111.094315,34.274555 
	C110.987831,33.883450 110.881348,33.492340 110.774864,33.101231 
	C109.076958,33.249203 107.379044,33.397171 104.083672,33.684357 
	C105.896111,30.932055 107.130600,29.057404 108.365089,27.182753 
	C108.100594,26.894991 107.836090,26.607227 107.571594,26.319466 
	C105.129410,27.379782 102.687225,28.440098 100.093315,29.566288 
	C101.665176,33.132931 102.996216,36.153122 104.709984,39.821289 
M125.329094,26.248510 
	C126.278572,29.723442 127.228050,33.198372 128.279251,37.045578 
	C131.112091,35.593246 134.880661,36.624043 136.845123,32.110542 
	C134.086395,32.577652 132.539536,32.839569 131.355576,33.040043 
	C126.282295,28.485220 134.165726,28.539562 133.590744,25.361574 
	C132.878876,25.263159 132.262283,25.243114 131.683838,25.084217 
	C130.519501,24.764374 129.375961,24.368895 128.223831,24.004620 
	C128.977875,23.198761 129.743027,22.402925 130.482666,21.584038 
	C131.131104,20.866104 131.750900,20.122297 132.383362,19.389923 
	C132.123642,19.084742 131.863937,18.779558 131.604233,18.474375 
	C129.124603,19.094688 126.644966,19.715004 123.929810,20.394238 
	C124.380913,22.305323 124.753540,23.883955 125.329094,26.248510 
M142.712799,298.424561 
	C141.100800,305.745056 139.488800,313.065521 137.876801,320.386017 
	C138.336212,320.801117 138.795609,321.216248 139.255020,321.631378 
	C140.492935,320.652466 142.551346,319.863098 142.828720,318.662292 
	C144.126312,313.045013 145.059341,307.330353 145.786102,301.607758 
	C145.902023,300.694885 144.305313,299.564545 142.712799,298.424561 
M229.438263,43.992496 
	C232.341797,40.403149 231.543945,33.827724 238.555008,33.552120 
	C238.566116,33.150105 238.577225,32.748093 238.588348,32.346077 
	C235.814606,30.915083 233.040863,29.484089 230.267120,28.053093 
	C233.088348,35.220490 226.645096,39.082031 225.588348,45.326336 
	C226.953506,45.075912 228.037292,44.877106 229.438263,43.992496 
M134.054443,19.600388 
	C136.252151,20.190756 137.973633,20.839739 138.124298,23.829628 
	C138.294540,27.207508 139.354355,30.540554 140.269501,35.099522 
	C141.628372,33.513165 142.943909,32.672470 142.892853,31.925148 
	C142.539413,26.752287 139.044617,21.654476 142.518936,15.859719 
	C139.661850,16.832319 136.804764,17.804918 134.054443,19.600388 
z"/>
<path fill="#020202" opacity="1.000000" stroke="none" 
	d="
M197.404312,290.593933 
	C145.074829,301.363464 100.865417,287.552124 67.429520,246.261963 
	C5.827925,170.189819 50.662502,56.558262 147.646378,41.154583 
	C217.286880,30.093777 283.898682,80.013672 292.957916,150.053192 
	C301.314240,214.658569 260.996765,274.158752 197.404312,290.593933 
M102.633850,108.996460 
	C97.273735,110.051918 91.716003,110.534622 86.600677,112.299568 
	C79.267014,114.829910 74.718422,120.444336 74.177551,128.304855 
	C73.690269,135.386719 74.074768,142.528580 74.074768,149.788315 
	C81.497948,149.788315 88.569130,149.788315 96.005585,149.788315 
	C96.005585,145.122910 95.889610,140.659424 96.032944,136.204300 
	C96.244583,129.625717 98.823410,126.850197 104.877800,126.345543 
	C111.285973,125.811401 115.229027,128.588852 116.432945,134.705566 
	C116.847023,136.809341 116.969246,138.999435 116.973335,141.150558 
	C117.012024,161.478806 117.005180,181.807190 116.981293,202.135483 
	C116.979149,203.958069 116.955238,205.816772 116.614510,207.596115 
	C115.541122,213.201508 112.630974,215.517517 106.882805,215.579819 
	C100.937172,215.644257 96.991989,213.213684 96.566216,207.695984 
	C95.958946,199.826218 96.411720,191.874664 96.411720,183.547729 
	C100.909164,183.547729 105.156593,183.547729 109.386559,183.547729 
	C109.386559,177.365524 109.386559,171.604279 109.386559,165.597870 
	C97.549118,165.597870 85.977921,165.597870 74.239029,165.597870 
	C74.239029,187.231781 74.239029,208.641724 74.239029,230.000031 
	C80.563309,230.000031 86.639778,230.000031 92.632149,230.000031 
	C92.853165,227.989410 93.037155,226.315613 93.257492,224.311203 
	C103.577827,234.245026 115.043617,234.964798 126.971123,229.955948 
	C138.137802,225.266586 139.746445,215.245453 139.681229,204.546738 
	C139.576599,187.384933 139.715607,170.221695 139.622864,153.059753 
	C139.585098,146.076126 139.548996,139.063202 138.911469,132.118759 
	C137.888351,120.974190 131.744568,113.523659 120.866539,110.871239 
	C115.288010,109.511017 109.362053,109.575661 102.633850,108.996460 
M258.873047,170.595123 
	C258.873047,168.688248 258.873047,166.781372 258.873047,164.668045 
	C252.299225,164.668045 246.475021,164.668045 240.650818,164.668045 
	C234.879501,164.668045 229.108200,164.668045 223.384598,164.668045 
	C223.384598,171.025787 223.384598,176.900772 223.384598,183.007385 
	C227.903946,183.007385 232.034058,183.007385 236.097092,183.007385 
	C236.097092,191.197144 236.314468,199.145508 236.003448,207.073135 
	C235.852631,210.917389 233.243973,213.304169 229.407791,214.239700 
	C220.790131,216.341309 215.763138,212.428421 215.702499,202.992996 
	C215.565445,181.667648 215.617798,160.340637 215.713104,139.014832 
	C215.724777,136.402542 216.085358,133.656265 216.957458,131.212311 
	C218.646729,126.478172 223.004730,124.790253 229.506180,125.785202 
	C234.043579,126.479591 236.168365,129.322449 236.297989,133.671448 
	C236.445679,138.626328 236.332138,143.589005 236.332138,148.690643 
	C244.183090,148.690643 251.399658,148.690643 258.796387,148.690643 
	C258.796387,142.073044 259.024384,135.757156 258.742096,129.464142 
	C258.335571,120.401695 253.673706,114.214157 245.176804,110.962700 
	C236.381668,107.597130 227.230026,107.208618 218.094833,108.513008 
	C200.776031,110.985909 193.148819,120.080536 193.132416,137.617172 
	C193.110428,161.109344 193.097839,184.601578 193.138687,208.093704 
	C193.160706,220.753952 199.767746,228.741470 212.187012,231.197296 
	C222.363464,233.209641 231.562408,231.293137 239.442764,223.368271 
	C239.644379,225.739700 239.780060,227.335434 239.932144,229.124176 
	C246.188278,229.124176 252.286057,229.124176 258.873047,229.124176 
	C258.873047,209.807831 258.873047,190.690643 258.873047,170.595123 
M181.824936,118.235886 
	C179.349792,114.631477 177.387711,110.452866 174.220596,107.622856 
	C172.079514,105.709679 171.212036,104.242821 171.278946,101.583656 
	C171.419418,96.000923 171.321609,90.412186 171.321609,85.039841 
	C167.189148,85.039841 163.788086,85.039841 160.134903,85.039841 
	C160.134903,91.205307 160.252014,97.017281 160.049210,102.818069 
	C160.000961,104.198364 159.255356,106.166702 158.195190,106.798492 
	C151.932388,110.530754 149.599289,115.961929 149.624496,123.082733 
	C149.744827,157.058914 149.675522,191.035751 149.687485,225.012360 
	C149.688049,226.597519 149.821106,228.182648 149.886520,229.635773 
	C160.844681,229.635773 171.392609,229.635773 181.629639,229.635773 
	C181.629639,219.037613 181.629639,208.803986 181.629639,198.314453 
	C177.983795,198.314453 174.703995,198.314453 171.349304,198.314453 
	C171.349304,179.342697 171.349304,160.644196 171.349304,141.696564 
	C174.986877,141.696564 178.274506,141.696564 181.927719,141.696564 
	C181.927719,134.001617 181.927719,126.552284 181.824936,118.235886 
M169.079834,80.907623 
	C169.845230,80.139236 171.175705,79.434395 171.270599,78.590591 
	C171.560822,76.010201 171.376038,73.376389 171.376038,70.641006 
	C167.379333,70.641006 163.856522,70.641006 160.437683,70.641006 
	C160.437683,74.215279 160.437683,77.438461 160.437683,80.909164 
	C163.248734,80.909164 165.714767,80.909164 169.079834,80.907623 
z"/>
<path fill="#111112" opacity="1.000000" stroke="none" 
	d="
M108.794037,302.794128 
	C107.067429,305.001190 105.340797,307.208221 103.328255,309.780762 
	C96.092125,307.957184 103.505928,302.345459 100.270187,299.341705 
	C99.144753,301.587646 97.958412,303.955109 96.548981,306.767792 
	C95.444916,306.308228 94.317406,305.838898 92.714798,305.171844 
	C95.894676,298.252716 98.980034,291.539276 102.251747,284.420319 
	C104.362007,285.337585 106.259682,286.162445 108.591698,287.176117 
	C107.747971,290.409882 106.940514,293.504639 106.133057,296.599396 
	C106.478447,296.861847 106.823837,297.124298 107.169220,297.386749 
	C109.281693,294.889069 111.394157,292.391388 113.783936,289.565857 
	C115.585472,290.411743 117.489822,291.305878 119.700035,292.343658 
	C116.483238,299.327515 113.380669,306.063385 110.285858,312.782410 
	C106.083847,311.173218 106.083847,311.173218 109.816483,303.656189 
	C110.236824,302.850739 110.307266,302.560150 110.477814,302.089294 
	C110.679184,301.672241 110.646820,301.403046 110.614456,301.133850 
	C110.271782,301.281769 109.929100,301.429688 109.370293,301.715332 
	C109.034111,302.166748 108.914070,302.480438 108.794037,302.794128 
z"/>
<path fill="#111212" opacity="1.000000" stroke="none" 
	d="
M244.310364,303.109497 
	C242.924881,303.076813 241.313034,303.210236 240.920731,302.582062 
	C237.325607,296.825531 233.942139,290.936798 230.489655,285.074188 
	C237.231781,280.597626 243.693329,276.307343 250.391800,271.859772 
	C250.989075,272.724121 251.590805,273.594910 252.284622,274.598938 
	C250.475220,275.967590 248.899063,277.159821 247.064056,278.547852 
	C247.993454,279.943390 248.865387,281.252625 249.557327,282.291595 
	C252.293900,283.287323 254.419174,276.837158 257.249390,282.132324 
	C255.587204,283.459167 254.177032,284.584869 252.411484,285.994232 
	C254.200104,288.615326 255.936752,291.160309 257.921539,294.068909 
	C256.834198,294.941132 255.774429,295.791229 254.572342,296.755463 
	C250.453415,291.177490 246.550430,285.891937 242.659103,280.622192 
	C240.362122,282.549286 238.547272,284.071869 236.401871,285.871765 
	C237.001877,287.051697 237.716263,288.456604 238.577606,290.150452 
	C240.526062,289.205994 242.273239,288.359070 244.016998,287.513824 
	C245.954498,290.239410 245.954498,290.239410 241.294952,293.303467 
	C242.414215,296.512695 243.531937,299.717529 244.310364,303.109497 
z"/>
<path fill="#121212" opacity="1.000000" stroke="none" 
	d="
M217.313812,311.695801 
	C215.989578,309.177979 216.683014,304.881592 211.579620,306.576935 
	C212.550919,309.738739 213.421005,312.571075 214.394699,315.740662 
	C213.247086,316.287689 212.119614,316.825134 210.496735,317.598724 
	C208.040665,310.254333 205.700912,303.257782 203.314667,296.122192 
	C204.169373,295.621338 204.678879,295.205322 205.262527,294.998199 
	C215.547409,291.349274 215.238678,291.422638 217.593842,302.209106 
	C218.417007,305.979187 221.186584,309.324249 223.067291,312.863403 
	C222.668411,313.366302 222.269547,313.869202 221.870682,314.372101 
	C220.403336,313.602997 218.935974,312.833893 217.313812,311.695801 
z"/>
<path fill="#0B0B0B" opacity="1.000000" stroke="none" 
	d="
M176.376923,305.793518 
	C176.382950,311.693878 176.382950,317.151184 176.382950,323.067657 
	C167.740158,325.072876 171.850739,315.636841 167.620987,313.142303 
	C167.620987,316.327026 167.620987,319.470947 167.620987,323.027985 
	C166.708435,323.107147 165.507416,323.211304 163.806381,323.358856 
	C163.806381,315.769348 163.806381,308.521423 163.806381,300.895630 
	C165.203094,300.800110 166.789444,300.691620 168.693863,300.561340 
	C169.549286,303.327240 170.357239,305.939728 171.258301,308.853210 
	C173.428909,306.143036 169.274582,300.493378 176.142654,300.443481 
	C176.221588,302.140350 176.296249,303.745392 176.376923,305.793518 
z"/>
<path fill="#0F0F10" opacity="1.000000" stroke="none" 
	d="
M195.902588,307.966064 
	C197.831848,307.620422 199.761124,307.274811 202.098663,306.856049 
	C202.937607,310.873871 203.734528,314.690399 204.589355,318.784271 
	C203.461609,319.087280 202.703369,319.354340 201.922287,319.491241 
	C192.035477,321.224213 192.033432,321.219666 190.002777,311.109222 
	C189.610016,309.153748 189.144196,307.207916 188.861710,305.236206 
	C188.098511,299.909515 189.741379,297.750214 194.922104,297.110046 
	C199.068726,296.597595 200.451935,297.954193 201.434814,304.792664 
	C199.477097,303.890320 198.130295,303.349945 196.865616,302.659271 
	C195.976730,302.173798 195.199631,301.483643 194.372604,300.884918 
	C193.944611,301.845673 193.171692,302.805420 193.168976,303.767365 
	C193.164810,305.232513 193.693924,306.699158 194.075226,308.953125 
	C194.464127,311.189972 194.590073,312.713715 195.139099,314.065674 
	C195.638016,315.294220 196.563171,316.364349 197.428833,317.396606 
	C197.486954,317.465942 199.216492,316.535370 199.168350,316.224945 
	C198.913239,314.579590 198.450699,312.939453 197.837677,311.385193 
	C197.361832,310.178772 196.559692,309.101013 195.902588,307.966064 
z"/>
<path fill="#0F0F10" opacity="1.000000" stroke="none" 
	d="
M152.287247,21.926228 
	C152.172836,19.480495 152.059784,17.507849 151.922180,15.106990 
	C153.689285,15.000978 155.234146,14.908301 156.956375,14.804983 
	C157.797318,17.890268 158.569550,20.723482 159.604431,24.520351 
	C160.225861,20.619354 160.686356,17.728594 161.189957,14.567288 
	C162.762299,14.486715 164.188370,14.413639 165.968796,14.322404 
	C166.341522,19.885077 166.693420,25.137003 167.058487,30.585312 
	C163.237335,32.713867 162.961609,29.887222 162.679504,26.714096 
	C160.978622,32.079300 159.379807,33.126995 158.106430,30.332319 
	C157.344116,28.659204 157.056122,26.769970 156.554916,24.977879 
	C156.080734,25.082882 155.606567,25.187885 155.132385,25.292889 
	C155.387482,27.345072 155.642578,29.397257 155.897400,31.447245 
	C153.073715,31.673410 153.073715,31.673410 152.287247,21.926228 
z"/>
<path fill="#111212" opacity="1.000000" stroke="none" 
	d="
M218.805618,37.825897 
	C217.560516,38.932793 216.526810,39.741634 215.493103,40.550476 
	C214.855240,39.242237 214.217377,37.933998 213.577820,36.622292 
	C212.535355,37.159203 211.087708,37.904808 209.640060,38.650414 
	C209.372162,38.236134 209.104263,37.821854 208.836365,37.407574 
	C210.713181,32.467564 212.589981,27.527554 214.452744,22.624491 
	C218.881409,23.242325 218.881409,23.242325 218.208420,32.295063 
	C220.378189,29.428829 221.734329,27.637386 223.362686,25.486351 
	C224.693085,25.935341 226.171463,26.434273 227.625336,26.924931 
	C224.437454,39.324436 222.515076,42.648029 219.321106,41.691772 
	C219.495651,40.273071 219.670197,38.874275 219.824417,37.473248 
	C219.827866,37.441971 219.594940,37.338680 219.481720,37.351612 
	C219.322189,37.369827 219.171494,37.465363 218.805618,37.825897 
z"/>
<path fill="#101011" opacity="1.000000" stroke="none" 
	d="
M228.457031,311.067078 
	C227.217773,310.538208 225.816467,310.030579 225.589935,309.201843 
	C223.837906,302.792328 222.313019,296.320740 220.703125,289.809143 
	C223.261490,287.381805 225.201340,286.843964 227.424118,290.334137 
	C230.804932,295.642609 234.643112,300.659760 239.121216,306.977539 
	C236.749054,306.977539 234.964539,307.521027 233.894775,306.877106 
	C230.484894,304.824585 228.954117,304.876434 229.845474,309.418396 
	C229.928848,309.843262 229.194092,310.428680 228.457031,311.067078 
z"/>
<path fill="#121212" opacity="1.000000" stroke="none" 
	d="
M97.265488,281.345154 
	C94.770653,288.591858 92.077835,295.489014 89.385010,302.386200 
	C88.871223,302.501343 88.357437,302.616486 87.843643,302.731628 
	C87.301468,301.320740 87.006615,299.727783 86.142448,298.553986 
	C85.389008,297.530609 84.069031,296.540314 82.862419,296.333160 
	C81.396202,296.081421 79.786415,296.666016 78.238739,296.888794 
	C78.067627,296.400787 77.896523,295.912781 77.725410,295.424805 
	C82.860435,289.952393 87.995453,284.479980 93.424911,278.693787 
	C94.680664,279.487335 95.874084,280.241486 97.265488,281.345154 
z"/>
<path fill="#0D0D0D" opacity="1.000000" stroke="none" 
	d="
M154.038208,299.905823 
	C156.785721,300.898376 161.160568,298.332794 161.131271,303.871277 
	C158.872421,303.871277 156.928467,303.871277 154.432358,303.871277 
	C154.288406,305.335602 154.140305,306.842072 154.024323,308.021729 
	C156.002640,310.044281 160.949585,307.063599 159.883850,312.618561 
	C158.031906,312.618561 156.132507,312.618561 153.673416,312.618561 
	C153.439453,314.639587 153.204620,316.668030 152.930542,319.035461 
	C155.337494,319.340942 157.416412,319.604767 159.482208,319.866913 
	C159.444778,323.738831 157.492050,324.124146 148.416382,321.950836 
	C148.938095,315.319550 149.351578,308.593475 150.143799,301.912292 
	C150.239532,301.104767 152.381500,300.539886 154.038208,299.905823 
z"/>
<path fill="#131313" opacity="1.000000" stroke="none" 
	d="
M76.206444,284.798737 
	C74.553246,286.951874 73.136589,288.781219 71.589088,290.779480 
	C70.400887,290.012146 69.341721,289.328156 67.887512,288.389008 
	C72.516647,282.329651 77.009491,276.448669 81.477966,270.599609 
	C88.883858,273.969513 90.912048,276.555939 88.379364,279.595184 
	C86.807274,278.479340 85.220169,277.352875 83.297493,275.988190 
	C82.258789,277.197601 81.233635,278.391235 80.493011,279.253571 
	C80.048164,282.311737 87.227364,282.406067 83.455956,285.926208 
	C80.651909,285.345947 78.547447,284.910431 76.206444,284.798737 
z"/>
<path fill="#111212" opacity="1.000000" stroke="none" 
	d="
M248.970444,40.030685 
	C255.360397,39.327061 251.961166,43.357040 251.673431,46.827831 
	C253.202118,45.074238 254.145660,43.991894 255.073257,42.927822 
	C257.797516,45.316460 257.089996,46.789276 248.235718,57.906105 
	C243.195877,57.366577 246.125992,53.760437 246.135910,51.252064 
	C244.301392,52.241367 242.734024,53.086609 241.166656,53.931847 
	C240.885513,53.465618 240.604355,52.999386 240.323212,52.533157 
	C243.138824,48.464397 245.954422,44.395638 248.970444,40.030685 
M251.494980,46.973732 
	C251.420181,47.195599 251.345383,47.417465 251.270584,47.639332 
	C251.502914,47.562717 251.735229,47.486103 251.494980,46.973732 
z"/>
<path fill="#151515" opacity="1.000000" stroke="none" 
	d="
M111.766678,26.637037 
	C113.976707,24.996038 116.199028,23.393492 118.679268,22.640265 
	C119.267616,22.461590 121.040482,24.990057 121.711578,26.517895 
	C123.253296,30.027840 124.452133,33.688389 125.892517,37.563202 
	C120.273079,40.272991 122.586853,32.058025 118.019409,32.407223 
	C118.561211,34.859356 119.082024,37.216537 119.993370,41.341248 
	C117.960464,39.807011 116.419113,39.238342 115.972206,38.199043 
	C114.402565,34.548874 113.209396,30.736813 111.766678,26.637037 
z"/>
<path fill="#191919" opacity="1.000000" stroke="none" 
	d="
M63.640480,75.821175 
	C61.836834,74.732521 60.386990,73.852097 58.937141,72.971664 
	C58.646862,73.372902 58.356586,73.774139 58.066311,74.175377 
	C58.847652,75.075745 59.588268,76.016121 60.421970,76.865074 
	C61.231766,77.689690 62.137058,78.420517 62.825420,80.608170 
	C61.589581,80.482903 60.003288,80.803642 59.178322,80.155449 
	C55.530807,77.289497 52.102245,74.144890 48.271065,70.820587 
	C49.607090,69.160698 50.539967,67.198410 52.087692,66.322281 
	C53.427223,65.564011 55.963707,65.316368 57.100731,66.102272 
	C60.636524,68.546188 63.758553,71.588737 67.791473,75.041512 
	C66.228615,75.448112 65.111443,75.738754 63.640480,75.821175 
z"/>
<path fill="#141414" opacity="1.000000" stroke="none" 
	d="
M79.321999,51.632568 
	C85.147629,58.945084 85.042969,59.650787 77.456078,64.457542 
	C74.050354,60.259979 70.621925,56.034435 67.211037,51.830498 
	C73.198296,45.403179 74.145081,45.376579 79.321999,51.632568 
M77.980736,59.818806 
	C78.491890,58.936768 79.655396,57.603065 79.408218,57.246048 
	C77.814125,54.943604 75.982246,52.787342 74.045685,50.757427 
	C73.696358,50.391266 72.500610,50.832596 70.870438,50.971367 
	C73.426506,54.170986 75.455986,56.711437 77.980736,59.818806 
z"/>
<path fill="#131313" opacity="1.000000" stroke="none" 
	d="
M182.830872,16.107578 
	C191.327332,15.551193 191.984421,16.237795 191.073593,24.170130 
	C191.016998,24.663107 190.979477,25.158550 190.912079,25.649971 
	C189.834290,33.511517 189.004807,34.008701 180.512466,31.539753 
	C181.217499,26.556740 181.931656,21.509180 182.830872,16.107578 
M187.340668,27.636641 
	C187.545578,24.547464 187.750488,21.458288 187.955414,18.369114 
	C187.228714,18.320789 186.502014,18.272467 185.775314,18.224144 
	C185.230728,21.644182 184.178421,25.085306 184.319260,28.476877 
	C184.413879,30.754723 186.191910,30.693869 187.340668,27.636641 
z"/>
<path fill="#0F0F10" opacity="1.000000" stroke="none" 
	d="
M131.401306,296.303223 
	C134.977097,295.977600 135.551849,297.518982 134.715225,300.466675 
	C133.365341,305.222687 132.336441,310.069824 131.075027,315.278778 
	C132.966858,315.910461 134.764694,316.510773 136.570969,317.113922 
	C135.704102,320.788391 135.704102,320.788391 126.006577,317.955902 
	C127.695778,310.857117 129.394470,303.718475 131.401306,296.303223 
z"/>
<path fill="#161617" opacity="1.000000" stroke="none" 
	d="
M64.480499,68.555679 
	C62.869652,66.867111 61.567696,65.369659 60.138161,64.005951 
	C57.687130,61.667789 57.908173,59.399040 60.231014,57.212105 
	C62.531300,55.046402 64.848999,54.915691 67.111526,57.374546 
	C68.562996,58.951965 70.110535,60.440536 71.591614,61.991280 
	C73.894852,64.402855 75.807487,66.857849 72.612144,70.002495 
	C69.424179,73.139870 67.023018,71.412895 64.480499,68.555679 
M64.008667,63.248497 
	C65.984756,65.122932 67.960838,66.997375 69.936928,68.871819 
	C70.480316,68.305428 71.023712,67.739044 71.567101,67.172653 
	C68.736259,64.175880 65.905411,61.179100 63.074562,58.182323 
	C62.529438,58.595253 61.984314,59.008183 61.439186,59.421112 
	C62.103115,60.523582 62.767044,61.626057 64.008667,63.248497 
z"/>
<path fill="#171718" opacity="1.000000" stroke="none" 
	d="
M209.301788,25.470823 
	C208.628525,28.098707 207.947464,30.316315 207.485596,32.578671 
	C206.773056,36.069000 204.857788,37.219280 201.394135,36.337894 
	C197.656998,35.386913 197.375412,32.949356 198.208130,29.861561 
	C198.810318,27.628550 199.508987,25.416473 199.995712,23.158649 
	C200.656143,20.094894 202.260071,18.374834 205.545975,19.035301 
	C208.842072,19.697811 210.512756,21.537720 209.301788,25.470823 
M205.917328,25.625765 
	C205.917328,24.322277 205.917328,23.018789 205.917328,21.715302 
	C205.344864,21.679913 204.772415,21.644524 204.199951,21.609137 
	C203.087067,25.568825 200.790985,29.298363 201.672760,33.646042 
	C202.216125,33.792137 202.759506,33.938232 203.302872,34.084328 
	C204.123444,31.518759 204.944016,28.953192 205.917328,25.625765 
z"/>
<path fill="#131313" opacity="1.000000" stroke="none" 
	d="
M259.118774,65.964745 
	C255.758484,65.166603 255.758484,65.166603 255.787933,60.725197 
	C254.286911,60.804783 252.765518,60.885448 251.244125,60.966118 
	C251.856262,59.610050 252.257065,58.096943 253.123993,56.930210 
	C254.998001,54.408131 257.000031,51.956100 259.183563,49.701984 
	C260.002747,48.856312 261.471100,48.639473 262.643494,48.135948 
	C262.695282,49.313290 262.747070,50.490631 262.800903,51.714073 
	C264.361847,51.923264 266.308411,52.184139 268.255005,52.445015 
	C268.491669,52.889046 268.728302,53.333073 268.964966,53.777100 
	C261.668365,54.615261 259.563446,59.499855 258.862854,65.681473 
	C259.046631,66.027199 259.118774,65.964745 259.118774,65.964745 
z"/>
<path fill="#161617" opacity="1.000000" stroke="none" 
	d="
M41.119209,80.814484 
	C41.330990,79.932175 41.626396,79.317482 42.066681,78.834999 
	C43.984158,76.733734 44.803600,72.565582 49.261852,75.436188 
	C52.897526,77.777153 54.723598,80.239014 51.385750,83.617302 
	C52.032822,86.482536 57.718307,86.248062 54.554379,90.974747 
	C50.007011,87.609360 45.638260,84.376160 41.119209,80.814484 
z"/>
<path fill="#121212" opacity="1.000000" stroke="none" 
	d="
M82.776299,51.267014 
	C80.902359,48.505272 79.229584,46.049625 77.380951,43.335808 
	C81.942848,40.184017 82.058235,45.115604 83.611618,46.656082 
	C85.510330,48.539032 86.857956,50.977680 88.443893,53.176025 
	C89.013794,52.829983 89.583702,52.483940 90.153603,52.137897 
	C88.981392,50.165882 87.659218,48.265339 86.676384,46.203075 
	C85.544975,43.829056 84.713524,41.312084 83.751801,38.857197 
	C85.580009,40.613644 87.479416,42.303455 89.209221,44.151985 
	C90.216827,45.228760 90.928642,46.577660 91.815819,47.772739 
	C93.770859,50.406277 94.149818,52.857048 91.112732,55.003506 
	C88.063103,57.158829 85.882996,55.996185 84.102325,53.210648 
	C83.745850,52.652996 83.353355,52.118366 82.776299,51.267014 
z"/>
<path fill="#151515" opacity="1.000000" stroke="none" 
	d="
M236.541321,39.553711 
	C238.304138,37.552586 239.823196,35.812614 242.309479,32.964756 
	C243.017776,35.311462 244.143829,36.982998 243.788361,38.233383 
	C242.486908,42.811569 240.692368,47.249584 238.534210,53.273567 
	C237.288208,50.441143 236.592453,48.859547 235.890350,47.263535 
	C234.256577,47.500450 232.604568,47.740013 230.952560,47.979576 
	C230.771729,47.612606 230.590912,47.245632 230.410095,46.878662 
	C232.372589,44.524063 234.335083,42.169464 236.541321,39.553711 
z"/>
<path fill="#161617" opacity="1.000000" stroke="none" 
	d="
M275.984406,84.909431 
	C275.060730,83.515831 274.137054,82.122231 273.213379,80.728622 
	C273.550385,80.425766 273.887390,80.122910 274.224426,79.820053 
	C272.488129,79.389496 270.751831,78.958931 267.508698,78.154709 
	C273.205322,75.052063 277.439301,72.626709 281.805115,70.468124 
	C282.686554,70.032318 284.067474,70.606712 285.218109,70.715370 
	C285.073853,71.846672 285.320587,73.281555 284.718323,74.057243 
	C281.976257,77.588959 278.995392,80.935242 276.031769,84.663498 
	C275.963104,84.978767 275.984406,84.909431 275.984406,84.909431 
z"/>
<path fill="#1B1B1B" opacity="1.000000" stroke="none" 
	d="
M93.422676,44.540890 
	C92.574623,43.063404 92.006424,41.851917 91.288940,40.736446 
	C89.396156,37.793728 89.066330,35.125210 92.592216,33.190807 
	C96.500664,31.046518 98.453156,33.112000 100.242699,38.374512 
	C97.421799,37.130371 95.770256,36.401966 94.118721,35.673565 
	C93.732986,35.883488 93.347252,36.093414 92.961525,36.303337 
	C94.900795,39.793816 96.840073,43.284290 99.089462,47.332943 
	C100.199959,45.841785 100.528275,45.601158 100.556648,45.329231 
	C100.703476,43.922176 100.773598,42.507118 100.870461,41.094849 
	C101.542473,41.400871 102.704163,41.599091 102.799484,42.032074 
	C103.161484,43.676331 103.878868,45.782784 103.197456,47.018185 
	C100.857895,51.259842 96.564232,50.202938 93.422676,44.540890 
z"/>
<path fill="#151515" opacity="1.000000" stroke="none" 
	d="
M170.272827,21.210594 
	C170.457962,18.783337 170.640152,16.818968 170.858978,14.459666 
	C173.715439,14.618832 176.379852,14.767297 179.044266,14.915762 
	C179.108719,15.453116 179.173172,15.990472 179.237625,16.527826 
	C177.618546,16.938221 175.999481,17.348616 172.856110,18.145380 
	C174.971161,20.019276 176.563263,21.429846 178.419159,23.074133 
	C176.603622,24.646975 171.620590,23.309135 173.466263,28.142412 
	C175.138687,28.816019 176.904800,29.527357 178.670898,30.238695 
	C178.446350,30.787169 178.221786,31.335644 177.997238,31.884119 
	C175.415665,31.698448 172.834091,31.512777 169.815872,31.295704 
	C169.976776,27.885639 170.123337,24.779562 170.272827,21.210594 
z"/>
<path fill="#141414" opacity="1.000000" stroke="none" 
	d="
M121.596275,298.567841 
	C122.198204,296.799561 122.659439,295.387817 123.229820,293.642059 
	C124.414444,293.860321 125.609436,294.080505 127.446350,294.418976 
	C125.252449,301.285889 123.273613,307.865936 120.944092,314.319397 
	C120.625702,315.201416 118.558868,315.452301 117.301567,315.995422 
	C116.984535,315.573151 116.667503,315.150879 116.350471,314.728607 
	C118.052177,309.460510 119.753883,304.192444 121.596275,298.567841 
z"/>
<path fill="#191919" opacity="1.000000" stroke="none" 
	d="
M104.518616,39.497299 
	C102.996216,36.153122 101.665176,33.132931 100.093315,29.566288 
	C102.687225,28.440098 105.129410,27.379782 107.571594,26.319466 
	C107.836090,26.607227 108.100594,26.894991 108.365089,27.182753 
	C107.130600,29.057404 105.896111,30.932055 104.083672,33.684357 
	C107.379044,33.397171 109.076958,33.249203 110.774864,33.101231 
	C110.881348,33.492340 110.987831,33.883450 111.094315,34.274555 
	C109.882088,35.183304 108.669853,36.092049 107.221977,37.177444 
	C107.758003,38.332619 108.293327,39.486267 108.808952,40.597473 
	C110.824768,40.376926 112.671776,40.174850 114.518784,39.972778 
	C114.652298,40.524433 114.785812,41.076084 114.919319,41.627739 
	C112.464622,42.776543 110.009926,43.925343 107.204659,45.238213 
	C106.342735,43.366638 105.526360,41.593964 104.518616,39.497299 
z"/>
<path fill="#191919" opacity="1.000000" stroke="none" 
	d="
M125.227631,25.855549 
	C124.753540,23.883955 124.380913,22.305323 123.929810,20.394238 
	C126.644966,19.715004 129.124603,19.094688 131.604233,18.474375 
	C131.863937,18.779558 132.123642,19.084742 132.383362,19.389923 
	C131.750900,20.122297 131.131104,20.866104 130.482666,21.584038 
	C129.743027,22.402925 128.977875,23.198761 128.223831,24.004620 
	C129.375961,24.368895 130.519501,24.764374 131.683838,25.084217 
	C132.262283,25.243114 132.878876,25.263159 133.590744,25.361574 
	C134.165726,28.539562 126.282295,28.485220 131.355576,33.040043 
	C132.539536,32.839569 134.086395,32.577652 136.845123,32.110542 
	C134.880661,36.624043 131.112091,35.593246 128.279251,37.045578 
	C127.228050,33.198372 126.278572,29.723442 125.227631,25.855549 
z"/>
<path fill="#0F0F10" opacity="1.000000" stroke="none" 
	d="
M143.106583,298.479645 
	C144.305313,299.564545 145.902023,300.694885 145.786102,301.607758 
	C145.059341,307.330353 144.126312,313.045013 142.828720,318.662292 
	C142.551346,319.863098 140.492935,320.652466 139.255020,321.631378 
	C138.795609,321.216248 138.336212,320.801117 137.876801,320.386017 
	C139.488800,313.065521 141.100800,305.745056 143.106583,298.479645 
z"/>
<path fill="#151515" opacity="1.000000" stroke="none" 
	d="
M259.018524,66.065750 
	C262.572723,62.192341 266.155029,58.280376 269.692413,54.417503 
	C275.721222,59.750114 275.721222,59.750114 274.780243,61.969749 
	C272.956146,61.327400 271.130157,60.684387 269.304199,60.041374 
	C269.145477,60.473869 268.986786,60.906364 268.828064,61.338860 
	C269.557800,62.943214 270.287567,64.547569 271.017303,66.151917 
	C270.651398,66.397591 270.285522,66.643257 269.919647,66.888931 
	C268.690491,66.014946 267.461365,65.140961 266.084808,64.162170 
	C265.156158,65.155235 264.262848,66.110504 263.436310,66.994362 
	C264.365051,68.800537 265.221680,70.466568 266.078339,72.132599 
	C265.520386,72.471039 264.962402,72.809486 264.404419,73.147926 
	C262.571960,70.983963 260.739532,68.820000 259.012939,66.310394 
	C259.118774,65.964745 259.046631,66.027199 259.018524,66.065750 
z"/>
<path fill="#161617" opacity="1.000000" stroke="none" 
	d="
M275.928223,84.988602 
	C277.904694,84.071266 280.012115,83.305283 281.904419,82.178200 
	C284.574066,80.588104 287.084534,78.730774 290.178314,76.639381 
	C291.646332,79.366913 292.959076,81.805923 294.271820,84.244934 
	C293.745422,84.535019 293.219025,84.825111 292.692596,85.115204 
	C291.645233,83.958206 290.597870,82.801208 289.568939,81.664589 
	C284.312622,82.745308 288.534302,85.557472 288.505646,89.044296 
	C286.352112,87.546043 284.967743,86.582909 283.405670,85.496140 
	C281.817291,86.538063 280.047607,87.698929 277.528687,89.351257 
	C277.166931,87.789574 276.892334,86.604218 276.301086,85.164146 
	C275.984406,84.909431 275.963104,84.978767 275.928223,84.988602 
z"/>
<path fill="#1B1B1B" opacity="1.000000" stroke="none" 
	d="
M229.279663,44.335396 
	C228.037292,44.877106 226.953506,45.075912 225.588348,45.326336 
	C226.645096,39.082031 233.088348,35.220490 230.267120,28.053093 
	C233.040863,29.484089 235.814606,30.915083 238.588348,32.346077 
	C238.577225,32.748093 238.566116,33.150105 238.555008,33.552120 
	C231.543945,33.827724 232.341797,40.403149 229.279663,44.335396 
z"/>
<path fill="#141414" opacity="1.000000" stroke="none" 
	d="
M134.001068,19.188953 
	C136.804764,17.804918 139.661850,16.832319 142.518936,15.859719 
	C139.044617,21.654476 142.539413,26.752287 142.892853,31.925148 
	C142.943909,32.672470 141.628372,33.513165 140.269501,35.099522 
	C139.354355,30.540554 138.294540,27.207508 138.124298,23.829628 
	C137.973633,20.839739 136.252151,20.190756 134.001068,19.188953 
z"/>
<path fill="#DADBDC" opacity="1.000000" stroke="none" 
	d="
M195.653992,307.996887 
	C196.559692,309.101013 197.361832,310.178772 197.837677,311.385193 
	C198.450699,312.939453 198.913239,314.579590 199.168350,316.224945 
	C199.216492,316.535370 197.486954,317.465942 197.428833,317.396606 
	C196.563171,316.364349 195.638016,315.294220 195.139099,314.065674 
	C194.590073,312.713715 194.464127,311.189972 194.189011,309.342163 
	C194.617889,308.638062 195.011627,308.332886 195.653992,307.996887 
z"/>
<path fill="#FBFBFB" opacity="1.000000" stroke="none" 
	d="
M103.113480,108.996414 
	C109.362053,109.575661 115.288010,109.511017 120.866539,110.871239 
	C131.744568,113.523659 137.888351,120.974190 138.911469,132.118759 
	C139.548996,139.063202 139.585098,146.076126 139.622864,153.059753 
	C139.715607,170.221695 139.576599,187.384933 139.681229,204.546738 
	C139.746445,215.245453 138.137802,225.266586 126.971123,229.955948 
	C115.043617,234.964798 103.577827,234.245026 93.257492,224.311203 
	C93.037155,226.315613 92.853165,227.989410 92.632149,230.000031 
	C86.639778,230.000031 80.563309,230.000031 74.239029,230.000031 
	C74.239029,208.641724 74.239029,187.231781 74.239029,165.597870 
	C85.977921,165.597870 97.549118,165.597870 109.386559,165.597870 
	C109.386559,171.604279 109.386559,177.365524 109.386559,183.547729 
	C105.156593,183.547729 100.909164,183.547729 96.411720,183.547729 
	C96.411720,191.874664 95.958946,199.826218 96.566216,207.695984 
	C96.991989,213.213684 100.937172,215.644257 106.882805,215.579819 
	C112.630974,215.517517 115.541122,213.201508 116.614510,207.596115 
	C116.955238,205.816772 116.979149,203.958069 116.981293,202.135483 
	C117.005180,181.807190 117.012024,161.478806 116.973335,141.150558 
	C116.969246,138.999435 116.847023,136.809341 116.432945,134.705566 
	C115.229027,128.588852 111.285973,125.811401 104.877800,126.345543 
	C98.823410,126.850197 96.244583,129.625717 96.032944,136.204300 
	C95.889610,140.659424 96.005585,145.122910 96.005585,149.788315 
	C88.569130,149.788315 81.497948,149.788315 74.074768,149.788315 
	C74.074768,142.528580 73.690269,135.386719 74.177551,128.304855 
	C74.718422,120.444336 79.267014,114.829910 86.600677,112.299568 
	C91.716003,110.534622 97.273735,110.051918 103.113480,108.996414 
z"/>
<path fill="#FAFBFB" opacity="1.000000" stroke="none" 
	d="
M258.873047,171.084290 
	C258.873047,190.690643 258.873047,209.807831 258.873047,229.124176 
	C252.286057,229.124176 246.188278,229.124176 239.932144,229.124176 
	C239.780060,227.335434 239.644379,225.739700 239.442764,223.368271 
	C231.562408,231.293137 222.363464,233.209641 212.187012,231.197296 
	C199.767746,228.741470 193.160706,220.753952 193.138687,208.093704 
	C193.097839,184.601578 193.110428,161.109344 193.132416,137.617172 
	C193.148819,120.080536 200.776031,110.985909 218.094833,108.513008 
	C227.230026,107.208618 236.381668,107.597130 245.176804,110.962700 
	C253.673706,114.214157 258.335571,120.401695 258.742096,129.464142 
	C259.024384,135.757156 258.796387,142.073044 258.796387,148.690643 
	C251.399658,148.690643 244.183090,148.690643 236.332138,148.690643 
	C236.332138,143.589005 236.445679,138.626328 236.297989,133.671448 
	C236.168365,129.322449 234.043579,126.479591 229.506180,125.785202 
	C223.004730,124.790253 218.646729,126.478172 216.957458,131.212311 
	C216.085358,133.656265 215.724777,136.402542 215.713104,139.014832 
	C215.617798,160.340637 215.565445,181.667648 215.702499,202.992996 
	C215.763138,212.428421 220.790131,216.341309 229.407791,214.239700 
	C233.243973,213.304169 235.852631,210.917389 236.003448,207.073135 
	C236.314468,199.145508 236.097092,191.197144 236.097092,183.007385 
	C232.034058,183.007385 227.903946,183.007385 223.384598,183.007385 
	C223.384598,176.900772 223.384598,171.025787 223.384598,164.668045 
	C229.108200,164.668045 234.879501,164.668045 240.650818,164.668045 
	C246.475021,164.668045 252.299225,164.668045 258.873047,164.668045 
	C258.873047,166.781372 258.873047,168.688248 258.873047,171.084290 
z"/>
<path fill="#FEFEFE" opacity="1.000000" stroke="none" 
	d="
M181.876328,118.669418 
	C181.927719,126.552284 181.927719,134.001617 181.927719,141.696564 
	C178.274506,141.696564 174.986877,141.696564 171.349304,141.696564 
	C171.349304,160.644196 171.349304,179.342697 171.349304,198.314453 
	C174.703995,198.314453 177.983795,198.314453 181.629639,198.314453 
	C181.629639,208.803986 181.629639,219.037613 181.629639,229.635773 
	C171.392609,229.635773 160.844681,229.635773 149.886520,229.635773 
	C149.821106,228.182648 149.688049,226.597519 149.687485,225.012360 
	C149.675522,191.035751 149.744827,157.058914 149.624496,123.082733 
	C149.599289,115.961929 151.932388,110.530754 158.195190,106.798492 
	C159.255356,106.166702 160.000961,104.198364 160.049210,102.818069 
	C160.252014,97.017281 160.134903,91.205307 160.134903,85.039841 
	C163.788086,85.039841 167.189148,85.039841 171.321609,85.039841 
	C171.321609,90.412186 171.419418,96.000923 171.278946,101.583656 
	C171.212036,104.242821 172.079514,105.709679 174.220596,107.622856 
	C177.387711,110.452866 179.349792,114.631477 181.876328,118.669418 
z"/>
<path fill="#ECECED" opacity="1.000000" stroke="none" 
	d="
M168.630325,80.908394 
	C165.714767,80.909164 163.248734,80.909164 160.437683,80.909164 
	C160.437683,77.438461 160.437683,74.215279 160.437683,70.641006 
	C163.856522,70.641006 167.379333,70.641006 171.376038,70.641006 
	C171.376038,73.376389 171.560822,76.010201 171.270599,78.590591 
	C171.175705,79.434395 169.845230,80.139236 168.630325,80.908394 
z"/>
<path fill="#F9F9F9" opacity="1.000000" stroke="none" 
	d="
M109.586426,301.577637 
	C109.929100,301.429688 110.271782,301.281769 110.614456,301.133850 
	C110.646820,301.403046 110.679184,301.672241 110.312813,301.924957 
	C109.914085,301.908508 109.586433,301.577637 109.586426,301.577637 
z"/>
<path fill="#F9F9F9" opacity="1.000000" stroke="none" 
	d="
M109.020233,302.979218 
	C108.914070,302.480438 109.034111,302.166748 109.370300,301.715332 
	C109.586433,301.577637 109.914085,301.908508 110.079086,302.072845 
	C110.307266,302.560150 110.236824,302.850739 109.889359,303.288422 
	C109.579453,303.366699 109.412949,303.265503 109.020233,302.979218 
z"/>
<path fill="#F9F9F9" opacity="1.000000" stroke="none" 
	d="
M251.731262,47.191612 
	C251.735229,47.486103 251.502914,47.562717 251.270584,47.639328 
	C251.345383,47.417465 251.420181,47.195599 251.731262,47.191612 
z"/>
<path fill="#DEDFE0" opacity="1.000000" stroke="none" 
	d="
M77.733101,59.535347 
	C75.455986,56.711437 73.426506,54.170986 70.870438,50.971367 
	C72.500610,50.832596 73.696358,50.391266 74.045685,50.757427 
	C75.982246,52.787342 77.814125,54.943604 79.408218,57.246048 
	C79.655396,57.603065 78.491890,58.936768 77.733101,59.535347 
z"/>
<path fill="#DEDFE0" opacity="1.000000" stroke="none" 
	d="
M187.274338,28.056255 
	C186.191910,30.693869 184.413879,30.754723 184.319260,28.476877 
	C184.178421,25.085306 185.230728,21.644182 185.775314,18.224144 
	C186.502014,18.272467 187.228714,18.320789 187.955414,18.369114 
	C187.750488,21.458288 187.545578,24.547464 187.274338,28.056255 
z"/>
<path fill="#DEDFE0" opacity="1.000000" stroke="none" 
	d="
M63.719818,62.988510 
	C62.767044,61.626057 62.103115,60.523582 61.439186,59.421112 
	C61.984314,59.008183 62.529438,58.595253 63.074562,58.182323 
	C65.905411,61.179100 68.736259,64.175880 71.567101,67.172653 
	C71.023712,67.739044 70.480316,68.305428 69.936928,68.871819 
	C67.960838,66.997375 65.984756,65.122932 63.719818,62.988510 
z"/>
<path fill="#DADBDC" opacity="1.000000" stroke="none" 
	d="
M205.840958,26.006695 
	C204.944016,28.953192 204.123444,31.518759 203.302872,34.084328 
	C202.759506,33.938232 202.216125,33.792137 201.672760,33.646042 
	C200.790985,29.298363 203.087067,25.568825 204.199951,21.609137 
	C204.772415,21.644524 205.344864,21.679913 205.917328,21.715302 
	C205.917328,23.018789 205.917328,24.322277 205.840958,26.006695 
z"/>
</svg>